<svg xmlns="http://www.w3.org/2000/svg" width="144" height="24" fill="none" xmlns:v="https://vecta.io/nano"><g fill-rule="evenodd"><path d="M93.082 4.853c1.675 0 3.165.425 4.441 1.265l.27.186V5.186h4.903v17.928h-4.903v-.965c-1.305.96-2.888 1.446-4.711 1.446-2.547 0-4.937-.979-6.73-2.757a9.28 9.28 0 0 1-2.772-6.633c0-2.516.985-4.87 2.773-6.628s4.176-2.724 6.73-2.724zm41.304 0c1.675 0 3.165.425 4.441 1.265l.27.186V5.186H144v17.928h-4.903v-.965c-1.304.96-2.887 1.446-4.711 1.446-2.547 0-4.937-.979-6.73-2.757-1.788-1.773-2.772-4.128-2.772-6.633 0-2.516.984-4.87 2.772-6.628s4.177-2.724 6.73-2.724zm-19.006 0c2.092 0 3.875.645 5.155 1.866 1.394 1.33 2.132 3.254 2.196 5.724l.005.356v10.315h-4.903v-9.574c0-1.495-.362-2.578-1.076-3.219-.562-.505-1.34-.751-2.377-.751s-1.819.239-2.378.729c-.665.584-1.024 1.551-1.069 2.877l-.005.29v9.649h-4.903V5.186h4.903V6.31l.282-.2.3-.199c.883-.559 2.04-1.058 3.87-1.058zm-51.362 0v4.716h-.175c-2.754 0-4.487.367-5.456 1.154-.767.624-1.105 1.52-1.14 3.056l-.003.278v9.056h-4.903V5.186h4.903v1.131c1.55-1.06 3.158-1.435 6.224-1.462l.55-.002zm-58.532.333l3.437 11.167 4.01-11.167h4.245l3.938 11.165 3.472-11.165h5.523l-6.456 17.928h-4.762L15.057 12.26l-3.69 10.853H6.38L0 5.186h5.485zM71.705 0l-.026 12.74 5.701-7.071h6.574l-7.228 8.722 7.291 8.66h-6.605l-5.605-7.597-.101 7.597h-4.918V0h4.918zm62.681 9.569c-2.533 0-4.674 2.123-4.674 4.636 0 1.228.488 2.395 1.374 3.286s2.062 1.387 3.3 1.387c1.254 0 2.438-.493 3.333-1.387.889-.889 1.378-2.055 1.378-3.285 0-1.214-.489-2.369-1.378-3.253a4.7 4.7 0 0 0-3.333-1.383zm-41.304 0c-2.534 0-4.674 2.123-4.674 4.636 0 1.228.488 2.395 1.374 3.286a4.63 4.63 0 0 0 3.3 1.387c1.254 0 2.438-.493 3.333-1.387.889-.889 1.378-2.056 1.378-3.286 0-1.214-.489-2.369-1.378-3.253a4.7 4.7 0 0 0-3.333-1.383z" fill="#fff"/><path d="M39.912 8.889c1.387-.802 2.996-1.261 4.713-1.261a9.45 9.45 0 0 1 2.271.276c-1.725-1.901-4.215-3.095-6.984-3.095s-5.26 1.194-6.984 3.095a9.45 9.45 0 0 1 2.271-.276c1.717 0 3.327.459 4.713 1.261z" fill="#ffc600"/><path d="M30.858 11.604a9.42 9.42 0 0 0-.372 2.63 9.43 9.43 0 0 0 7.155 9.148c-1.5-1.653-2.42-3.841-2.441-6.244-2.081-1.203-3.658-3.178-4.342-5.534z" fill="#ff4807"/><path d="M35.199 17.137l-.001-.085a9.42 9.42 0 0 1 4.713-8.163c-1.386-.802-2.996-1.261-4.713-1.261-.783 0-1.544.096-2.271.276-.949 1.046-1.666 2.306-2.07 3.699.683 2.356 2.261 4.331 4.342 5.534z" fill="#ff97b1"/><path d="M44.624 17.138c-.021 2.403-.941 4.59-2.441 6.244a9.43 9.43 0 0 0 7.155-9.148c0-.913-.13-1.795-.372-2.63-.683 2.356-2.261 4.331-4.342 5.534z" fill="#0a78ff"/><path d="M44.625 7.628c-1.717 0-3.327.459-4.713 1.261a9.42 9.42 0 0 1 4.713 8.163l-.001.085c2.081-1.203 3.659-3.178 4.342-5.534-.404-1.393-1.121-2.653-2.07-3.699a9.45 9.45 0 0 0-2.271-.276z" fill="#00b450"/></g><mask id="A" maskUnits="userSpaceOnUse" x="35" y="17" width="10" height="7" mask-type="alpha"><path fill-rule="evenodd" d="M35.199 17.137h9.424v6.52h-9.424v-6.52z" fill="#fff"/></mask><g mask="url(#A)"><path fill-rule="evenodd" d="M39.911 18.398c-1.716 0-3.326-.459-4.712-1.261.021 2.403.941 4.59 2.441 6.244.727.18 1.488.276 2.271.276s1.544-.096 2.271-.276c1.5-1.653 2.42-3.841 2.441-6.244-1.386.802-2.996 1.261-4.712 1.261z" fill="#bf17a7"/></g><path fill-rule="evenodd" d="M35.198 17.052l.001.085c1.386.802 2.996 1.261 4.712 1.261s3.326-.459 4.712-1.261l.001-.085a9.42 9.42 0 0 0-4.713-8.163 9.42 9.42 0 0 0-4.713 8.163z" fill="#002d72"/></svg>